<svg width="83" height="20" viewBox="0 0 83 20" fill="none" xmlns="http://www.w3.org/2000/svg">
<path d="M7.12109 3.94141H0.359375V0.683594H17.5977V3.94141H10.8359V19H7.12109V3.94141ZM21.5703 0.683594H25.2852V15.7422H35.9375V19H21.5703V0.683594ZM40.4023 13.5508C41.0664 13.9258 41.7383 14.2656 42.418 14.5703C43.1055 14.8672 43.8164 15.1211 44.5508 15.332C45.2852 15.5352 46.0547 15.6914 46.8594 15.8008C47.6719 15.9102 48.5352 15.9648 49.4492 15.9648C50.5508 15.9648 51.4883 15.8945 52.2617 15.7539C53.0352 15.6055 53.6641 15.4062 54.1484 15.1562C54.6406 14.8984 54.9961 14.5938 55.2148 14.2422C55.4414 13.8906 55.5547 13.5078 55.5547 13.0938C55.5547 12.4297 55.2773 11.9062 54.7227 11.5234C54.168 11.1328 53.3125 10.9375 52.1562 10.9375C51.6484 10.9375 51.1133 10.9727 50.5508 11.043C49.9883 11.1055 49.418 11.1758 48.8398 11.2539C48.2695 11.332 47.7031 11.4062 47.1406 11.4766C46.5859 11.5391 46.0625 11.5703 45.5703 11.5703C44.75 11.5703 43.9609 11.4648 43.2031 11.2539C42.4531 11.043 41.7852 10.7266 41.1992 10.3047C40.6211 9.88281 40.1602 9.35547 39.8164 8.72266C39.4727 8.08984 39.3008 7.35156 39.3008 6.50781C39.3008 6.00781 39.3672 5.51172 39.5 5.01953C39.6406 4.52734 39.8594 4.05859 40.1562 3.61328C40.4609 3.16016 40.8516 2.74219 41.3281 2.35938C41.8047 1.96875 42.3789 1.63281 43.0508 1.35156C43.7305 1.07031 44.5117 0.851562 45.3945 0.695312C46.2852 0.53125 47.2969 0.449219 48.4297 0.449219C49.25 0.449219 50.0742 0.496094 50.9023 0.589844C51.7305 0.675781 52.5352 0.800781 53.3164 0.964844C54.1055 1.12891 54.8633 1.32812 55.5898 1.5625C56.3164 1.78906 56.9922 2.04297 57.6172 2.32422L55.9883 5.32422C55.4727 5.09766 54.918 4.89062 54.3242 4.70312C53.7305 4.50781 53.1094 4.33984 52.4609 4.19922C51.8125 4.05859 51.1406 3.94922 50.4453 3.87109C49.7578 3.78516 49.0547 3.74219 48.3359 3.74219C47.3125 3.74219 46.4688 3.81641 45.8047 3.96484C45.1484 4.11328 44.625 4.30469 44.2344 4.53906C43.8438 4.76562 43.5703 5.02344 43.4141 5.3125C43.2656 5.59375 43.1914 5.875 43.1914 6.15625C43.1914 6.70312 43.4375 7.15234 43.9297 7.50391C44.4219 7.84766 45.1719 8.01953 46.1797 8.01953C46.5859 8.01953 47.0508 7.99219 47.5742 7.9375C48.1055 7.875 48.6602 7.80859 49.2383 7.73828C49.8242 7.66797 50.418 7.60547 51.0195 7.55078C51.6289 7.48828 52.2188 7.45703 52.7891 7.45703C53.8672 7.45703 54.8203 7.57812 55.6484 7.82031C56.4844 8.0625 57.1836 8.41016 57.7461 8.86328C58.3086 9.30859 58.7344 9.85156 59.0234 10.4922C59.3125 11.125 59.457 11.8359 59.457 12.625C59.457 13.6797 59.2109 14.6211 58.7188 15.4492C58.2344 16.2695 57.5391 16.9648 56.6328 17.5352C55.7344 18.0977 54.6484 18.5273 53.375 18.8242C52.1016 19.1133 50.6836 19.2578 49.1211 19.2578C48.0898 19.2578 47.082 19.1914 46.0977 19.0586C45.1133 18.9336 44.168 18.7539 43.2617 18.5195C42.3633 18.2773 41.5039 17.9922 40.6836 17.6641C39.8711 17.3281 39.1172 16.9609 38.4219 16.5625L40.4023 13.5508ZM63.5234 0.683594H67.2383L78.6523 6.66016V0.683594H82.3672V19H78.6523V10.5977L67.2383 4.65625V19H63.5234V0.683594Z" fill="black"/>
</svg>
